<?xml version="1.0" encoding="UTF-8"?>
<svg xmlns="http://www.w3.org/2000/svg" xmlns:xlink="http://www.w3.org/1999/xlink" width="375pt" height="374.999991pt" viewBox="0 0 375 374.999991" version="1.2">
<defs>
<filter id="alpha" filterUnits="objectBoundingBox" x="0%" y="0%" width="100%" height="100%">
  <feColorMatrix type="matrix" in="SourceGraphic" values="0 0 0 0 1 0 0 0 0 1 0 0 0 0 1 0 0 0 1 0"/>
</filter>
<mask id="mask0">
  <g filter="url(#alpha)">
<rect x="0" y="0" width="375" height="374.999991" style="fill:rgb(0%,0%,0%);fill-opacity:0.2471;stroke:none;"/>
  </g>
</mask>
<clipPath id="clip1">
  <rect x="0" y="0" width="375" height="375"/>
</clipPath>
<g id="surface7" clip-path="url(#clip1)">
<path style="fill:none;stroke-width:18.009243;stroke-linecap:butt;stroke-linejoin:miter;stroke:rgb(54.899597%,32.159424%,100%);stroke-opacity:1;stroke-miterlimit:4;" d="M 54.754242 455.999047 L 396.173014 455.999047 L 396.173014 434.896951 L 80.196887 434.896951 L 80.196887 119.85391 L 54.754242 119.85391 Z M 54.754242 455.999047 " transform="matrix(-1.034035,-0.000000000000000127,0.000000000000000127,-1.034035,420.559225,482.68708)"/>
</g>
<mask id="mask1">
  <g filter="url(#alpha)">
<rect x="0" y="0" width="375" height="374.999991" style="fill:rgb(0%,0%,0%);fill-opacity:0.2471;stroke:none;"/>
  </g>
</mask>
<clipPath id="clip3">
  <path d="M 0.84375 1.0625 L 48 1.0625 L 48 167 L 0.84375 167 Z M 0.84375 1.0625 "/>
</clipPath>
<clipPath id="clip4">
  <path d="M 112 1.0625 L 146.640625 1.0625 L 146.640625 167 L 112 167 Z M 112 1.0625 "/>
</clipPath>
<clipPath id="clip5">
  <path d="M 45 16 L 87 16 L 87 167.542969 L 45 167.542969 Z M 45 16 "/>
</clipPath>
<clipPath id="clip2">
  <rect x="0" y="0" width="147" height="168"/>
</clipPath>
<g id="surface10" clip-path="url(#clip2)">
<g clip-path="url(#clip3)" clip-rule="nonzero">
<path style=" stroke:none;fill-rule:nonzero;fill:rgb(54.899597%,32.159424%,100%);fill-opacity:1;" d="M 5.015625 162.679688 L 43.414062 162.679688 L 43.414062 5.144531 L 5.015625 5.144531 Z M 45.457031 166.757812 L 2.972656 166.757812 C 1.84375 166.757812 0.929688 165.847656 0.929688 164.71875 L 0.929688 3.101562 C 0.929688 1.976562 1.84375 1.0625 2.972656 1.0625 L 45.457031 1.0625 C 46.585938 1.0625 47.5 1.976562 47.5 3.101562 L 47.5 164.71875 C 47.5 165.847656 46.585938 166.757812 45.457031 166.757812 "/>
</g>
<g clip-path="url(#clip4)" clip-rule="nonzero">
<path style=" stroke:none;fill-rule:nonzero;fill:rgb(54.899597%,32.159424%,100%);fill-opacity:1;" d="M 116.382812 162.679688 L 142.464844 162.679688 L 142.464844 5.144531 L 116.382812 5.144531 Z M 144.507812 166.757812 L 114.339844 166.757812 C 113.214844 166.757812 112.296875 165.847656 112.296875 164.71875 L 112.296875 3.105469 C 112.296875 1.976562 113.214844 1.0625 114.339844 1.0625 L 144.507812 1.0625 C 145.632812 1.0625 146.546875 1.976562 146.546875 3.105469 L 146.546875 164.71875 C 146.546875 165.847656 145.632812 166.757812 144.507812 166.757812 "/>
</g>
<path style=" stroke:none;fill-rule:nonzero;fill:rgb(54.899597%,32.159424%,100%);fill-opacity:1;" d="M 89.402344 162.679688 L 106.558594 162.679688 L 106.558594 14.378906 L 89.402344 14.378906 Z M 108.601562 166.757812 L 87.359375 166.757812 C 86.230469 166.757812 85.316406 165.847656 85.316406 164.71875 L 85.316406 12.335938 C 85.316406 11.210938 86.230469 10.296875 87.359375 10.296875 L 108.601562 10.296875 C 109.730469 10.296875 110.644531 11.210938 110.644531 12.335938 L 110.644531 164.71875 C 110.644531 165.847656 109.730469 166.757812 108.601562 166.757812 "/>
<g clip-path="url(#clip5)" clip-rule="nonzero">
<path style=" stroke:none;fill-rule:nonzero;fill:rgb(54.899597%,32.159424%,100%);fill-opacity:1;" d="M 49.953125 23 L 63.933594 163.261719 L 82.597656 161.402344 L 68.617188 21.144531 Z M 62.105469 167.53125 C 61.632812 167.53125 61.175781 167.371094 60.808594 167.070312 C 60.390625 166.726562 60.125 166.234375 60.070312 165.695312 L 45.6875 21.375 C 45.632812 20.835938 45.792969 20.296875 46.136719 19.878906 C 46.480469 19.460938 46.976562 19.195312 47.515625 19.140625 L 70.242188 16.878906 C 71.371094 16.765625 72.367188 17.585938 72.480469 18.707031 L 86.863281 163.027344 C 86.976562 164.148438 86.15625 165.148438 85.035156 165.261719 L 62.304688 167.523438 C 62.238281 167.53125 62.171875 167.53125 62.105469 167.53125 "/>
</g>
<path style=" stroke:none;fill-rule:nonzero;fill:rgb(54.899597%,32.159424%,100%);fill-opacity:1;" d="M 3.992188 44.984375 L 44.4375 44.984375 L 44.4375 25.253906 L 3.992188 25.253906 Z M 45.457031 47.027344 L 2.972656 47.027344 C 2.410156 47.027344 1.949219 46.570312 1.949219 46.007812 L 1.949219 24.234375 C 1.949219 23.667969 2.410156 23.210938 2.972656 23.210938 L 45.457031 23.210938 C 46.023438 23.210938 46.480469 23.667969 46.480469 24.234375 L 46.480469 46.007812 C 46.480469 46.570312 46.023438 47.027344 45.457031 47.027344 "/>
<path style=" stroke:none;fill-rule:nonzero;fill:rgb(54.899597%,32.159424%,100%);fill-opacity:1;" d="M 115.363281 25.117188 L 143.484375 25.117188 L 143.484375 13.355469 L 115.363281 13.355469 Z M 144.507812 27.15625 L 114.339844 27.15625 C 113.777344 27.15625 113.320312 26.699219 113.320312 26.136719 L 113.320312 12.335938 C 113.320312 11.773438 113.777344 11.316406 114.339844 11.316406 L 144.507812 11.316406 C 145.070312 11.316406 145.527344 11.773438 145.527344 12.335938 L 145.527344 26.136719 C 145.527344 26.699219 145.070312 27.15625 144.507812 27.15625 "/>
<path style=" stroke:none;fill-rule:nonzero;fill:rgb(54.899597%,32.159424%,100%);fill-opacity:1;" d="M 115.363281 153.816406 L 143.484375 153.816406 L 143.484375 142.054688 L 115.363281 142.054688 Z M 144.507812 155.855469 L 114.339844 155.855469 C 113.777344 155.855469 113.320312 155.398438 113.320312 154.835938 L 113.320312 141.035156 C 113.320312 140.472656 113.777344 140.015625 114.339844 140.015625 L 144.507812 140.015625 C 145.070312 140.015625 145.527344 140.472656 145.527344 141.035156 L 145.527344 154.835938 C 145.527344 155.398438 145.070312 155.855469 144.507812 155.855469 "/>
<path style=" stroke:none;fill-rule:nonzero;fill:rgb(54.899597%,32.159424%,100%);fill-opacity:1;" d="M 108.601562 25.253906 L 87.359375 25.253906 C 86.796875 25.253906 86.335938 24.796875 86.335938 24.234375 C 86.335938 23.667969 86.796875 23.210938 87.359375 23.210938 L 108.601562 23.210938 C 109.167969 23.210938 109.621094 23.667969 109.621094 24.234375 C 109.621094 24.796875 109.167969 25.253906 108.601562 25.253906 "/>
<path style=" stroke:none;fill-rule:nonzero;fill:rgb(54.899597%,32.159424%,100%);fill-opacity:1;" d="M 108.601562 30.691406 L 87.359375 30.691406 C 86.796875 30.691406 86.335938 30.238281 86.335938 29.671875 C 86.335938 29.109375 86.796875 28.652344 87.359375 28.652344 L 108.601562 28.652344 C 109.167969 28.652344 109.621094 29.109375 109.621094 29.671875 C 109.621094 30.238281 109.167969 30.691406 108.601562 30.691406 "/>
<path style=" stroke:none;fill-rule:nonzero;fill:rgb(54.899597%,32.159424%,100%);fill-opacity:1;" d="M 88.378906 152.183594 L 107.578125 152.183594 L 107.578125 141.164062 L 88.378906 141.164062 Z M 108.601562 154.222656 L 87.359375 154.222656 C 86.796875 154.222656 86.335938 153.769531 86.335938 153.203125 L 86.335938 140.144531 C 86.335938 139.578125 86.796875 139.121094 87.359375 139.121094 L 108.601562 139.121094 C 109.167969 139.121094 109.621094 139.578125 109.621094 140.144531 L 109.621094 153.203125 C 109.621094 153.769531 109.167969 154.222656 108.601562 154.222656 "/>
<path style=" stroke:none;fill-rule:nonzero;fill:rgb(54.899597%,32.159424%,100%);fill-opacity:1;" d="M 72.0625 141.164062 C 69.433594 141.164062 67.296875 143.300781 67.296875 145.925781 C 67.296875 148.550781 69.433594 150.6875 72.0625 150.6875 C 74.691406 150.6875 76.828125 148.550781 76.828125 145.925781 C 76.828125 143.300781 74.691406 141.164062 72.0625 141.164062 Z M 72.0625 152.726562 C 68.308594 152.726562 65.253906 149.675781 65.253906 145.925781 C 65.253906 142.175781 68.308594 139.121094 72.0625 139.121094 C 75.816406 139.121094 78.871094 142.175781 78.871094 145.925781 C 78.871094 149.675781 75.816406 152.726562 72.0625 152.726562 "/>
<path style=" stroke:none;fill-rule:nonzero;fill:rgb(54.899597%,32.159424%,100%);fill-opacity:1;" d="M 60.488281 30.691406 C 57.859375 30.691406 55.722656 32.828125 55.722656 35.457031 C 55.722656 38.082031 57.859375 40.21875 60.488281 40.21875 C 63.117188 40.21875 65.253906 38.082031 65.253906 35.457031 C 65.253906 32.828125 63.117188 30.691406 60.488281 30.691406 Z M 60.488281 42.257812 C 56.734375 42.257812 53.679688 39.203125 53.679688 35.457031 C 53.679688 31.703125 56.734375 28.652344 60.488281 28.652344 C 64.242188 28.652344 67.296875 31.703125 67.296875 35.457031 C 67.296875 39.203125 64.242188 42.257812 60.488281 42.257812 "/>
<path style=" stroke:none;fill-rule:nonzero;fill:rgb(54.899597%,32.159424%,100%);fill-opacity:1;" d="M 3.992188 18.855469 L 44.4375 18.855469 L 44.4375 14.914062 L 3.992188 14.914062 Z M 45.457031 20.898438 L 2.972656 20.898438 C 2.410156 20.898438 1.949219 20.441406 1.949219 19.878906 L 1.949219 13.890625 C 1.949219 13.328125 2.410156 12.871094 2.972656 12.871094 L 45.457031 12.871094 C 46.023438 12.871094 46.480469 13.328125 46.480469 13.890625 L 46.480469 19.878906 C 46.480469 20.441406 46.023438 20.898438 45.457031 20.898438 "/>
</g>
<clipPath id="clip6">
  <path d="M 250 326 L 273 326 L 273 343.320312 L 250 343.320312 Z M 250 326 "/>
</clipPath>
<clipPath id="clip7">
  <path d="M 259 220 L 329.59375 220 L 329.59375 334 L 259 334 Z M 259 220 "/>
</clipPath>
<clipPath id="clip8">
  <path d="M 194.132812 219 L 265 219 L 265 334 L 194.132812 334 Z M 194.132812 219 "/>
</clipPath>
<clipPath id="clip9">
  <path d="M 259 213.03125 L 321 213.03125 L 321 334 L 259 334 Z M 259 213.03125 "/>
</clipPath>
<clipPath id="clip10">
  <path d="M 203 213.03125 L 266 213.03125 L 266 334 L 203 334 Z M 203 213.03125 "/>
</clipPath>
</defs>
<g id="surface1">
<path style="fill:none;stroke-width:18.009243;stroke-linecap:butt;stroke-linejoin:miter;stroke:rgb(54.899597%,32.159424%,100%);stroke-opacity:1;stroke-miterlimit:4;" d="M 54.753891 455.998585 L 396.172663 455.998585 L 396.172663 434.896489 L 80.196537 434.896489 L 80.196537 119.857226 L 54.753891 119.857226 Z M 54.753891 455.998585 " transform="matrix(1.034035,0,0,1.034035,-45.840112,-112.620197)"/>
<use xlink:href="#surface7" transform="matrix(1,0,0,1,0,0)" mask="url(#mask0)"/>
<use xlink:href="#surface10" transform="matrix(1,0,0,1,48,159)" mask="url(#mask1)"/>
<path style=" stroke:none;fill-rule:nonzero;fill:rgb(54.899597%,32.159424%,100%);fill-opacity:1;" d="M 270.261719 337.027344 C 269.847656 337.511719 266.617188 341.144531 261.339844 340.996094 C 256.4375 340.859375 253.511719 337.5625 253.058594 337.027344 C 253.058594 334.222656 253.058594 331.417969 253.058594 328.613281 C 254.027344 329.339844 257.285156 331.574219 261.976562 331.472656 C 266.28125 331.375 269.25 329.367188 270.261719 328.613281 C 270.261719 331.417969 270.261719 334.222656 270.261719 337.027344 "/>
<g clip-path="url(#clip6)" clip-rule="nonzero">
<path style=" stroke:none;fill-rule:nonzero;fill:rgb(54.899597%,32.159424%,100%);fill-opacity:1;" d="M 255.355469 336.113281 C 256.335938 337.042969 258.433594 338.625 261.40625 338.710938 C 264.644531 338.804688 266.925781 337.09375 267.964844 336.113281 L 267.964844 332.515625 C 266.34375 333.179688 264.339844 333.710938 262.027344 333.761719 C 259.398438 333.816406 257.148438 333.25 255.355469 332.515625 Z M 261.652344 343.292969 C 261.527344 343.292969 261.402344 343.292969 261.277344 343.289062 C 255.6875 343.128906 252.234375 339.59375 251.308594 338.515625 C 250.953125 338.101562 250.761719 337.574219 250.761719 337.027344 L 250.761719 328.613281 C 250.761719 327.746094 251.25 326.953125 252.027344 326.566406 C 252.804688 326.179688 253.734375 326.261719 254.433594 326.78125 C 255.667969 327.703125 258.308594 329.257812 261.925781 329.183594 C 265.277344 329.109375 267.722656 327.644531 268.886719 326.78125 C 269.582031 326.261719 270.511719 326.179688 271.289062 326.566406 C 272.066406 326.953125 272.558594 327.746094 272.558594 328.613281 L 272.558594 337.027344 C 272.558594 337.574219 272.363281 338.101562 272.007812 338.515625 C 271.324219 339.316406 267.609375 343.292969 261.652344 343.292969 "/>
</g>
<path style=" stroke:none;fill-rule:nonzero;fill:rgb(54.899597%,32.159424%,100%);fill-opacity:1;" d="M 261.976562 331.472656 L 320.324219 224.042969 C 321.304688 222.234375 323.875 222.140625 324.988281 223.875 L 326.605469 226.390625 C 327.144531 227.234375 327.171875 228.304688 326.679688 229.175781 L 270.261719 328.613281 L 261.976562 331.472656 "/>
<g clip-path="url(#clip7)" clip-rule="nonzero">
<path style=" stroke:none;fill-rule:nonzero;fill:rgb(54.899597%,32.159424%,100%);fill-opacity:1;" d="M 322.707031 224.917969 C 322.59375 224.917969 322.441406 224.953125 322.34375 225.132812 L 266.8125 327.378906 L 268.6875 326.734375 L 324.679688 228.046875 C 324.753906 227.917969 324.75 227.753906 324.667969 227.625 L 323.054688 225.109375 C 323.023438 225.058594 322.929688 224.917969 322.707031 224.917969 Z M 261.976562 333.761719 C 261.316406 333.761719 260.671875 333.476562 260.226562 332.953125 C 259.613281 332.234375 259.503906 331.210938 259.957031 330.382812 L 318.304688 222.953125 C 319.179688 221.339844 320.867188 220.339844 322.707031 220.339844 C 324.421875 220.339844 326 221.199219 326.925781 222.640625 L 328.539062 225.160156 C 329.542969 226.71875 329.59375 228.691406 328.679688 230.304688 L 272.261719 329.742188 C 271.988281 330.226562 271.542969 330.597656 271.011719 330.777344 L 262.730469 333.636719 C 262.484375 333.71875 262.230469 333.761719 261.976562 333.761719 "/>
</g>
<path style=" stroke:none;fill-rule:nonzero;fill:rgb(54.899597%,32.159424%,100%);fill-opacity:1;" d="M 262.296875 331.472656 L 203.757812 223.6875 C 202.820312 221.964844 200.410156 221.777344 199.21875 223.335938 L 197.335938 225.804688 C 196.675781 226.664062 196.597656 227.832031 197.132812 228.773438 L 254.011719 328.613281 L 262.296875 331.472656 "/>
<g clip-path="url(#clip8)" clip-rule="nonzero">
<path style=" stroke:none;fill-rule:nonzero;fill:rgb(54.899597%,32.159424%,100%);fill-opacity:1;" d="M 255.582031 326.734375 L 257.460938 327.378906 L 201.738281 224.777344 C 201.640625 224.601562 201.484375 224.5625 201.371094 224.5625 C 201.171875 224.5625 201.078125 224.683594 201.046875 224.726562 L 199.164062 227.191406 C 199.0625 227.320312 199.050781 227.5 199.132812 227.640625 Z M 262.296875 333.761719 C 262.046875 333.761719 261.792969 333.71875 261.542969 333.636719 L 253.261719 330.777344 C 252.734375 330.597656 252.289062 330.226562 252.015625 329.746094 L 195.136719 229.902344 C 194.144531 228.160156 194.289062 226.007812 195.507812 224.414062 L 197.394531 221.949219 C 198.347656 220.699219 199.796875 219.984375 201.371094 219.984375 C 203.214844 219.984375 204.902344 220.984375 205.777344 222.597656 L 264.316406 330.382812 C 264.765625 331.210938 264.660156 332.234375 264.046875 332.953125 C 263.601562 333.476562 262.957031 333.761719 262.296875 333.761719 "/>
</g>
<g clip-path="url(#clip9)" clip-rule="nonzero">
<path style=" stroke:none;fill-rule:nonzero;fill:rgb(54.899597%,32.159424%,100%);fill-opacity:1;" d="M 300.863281 218.445312 C 290.578125 230.984375 282.289062 244.871094 276.210938 259.746094 C 268.160156 279.464844 264.082031 301.066406 264.28125 322.710938 L 315.089844 225.453125 Z M 262.296875 333.761719 C 262.136719 333.761719 261.980469 333.746094 261.820312 333.710938 C 260.808594 333.5 260.066406 332.640625 260.003906 331.613281 C 258.441406 306.433594 262.574219 280.988281 271.957031 258.019531 C 278.4375 242.152344 287.363281 227.382812 298.484375 214.121094 C 299.167969 213.308594 300.316406 213.066406 301.265625 213.535156 L 319.230469 222.382812 C 319.785156 222.65625 320.203125 223.136719 320.394531 223.722656 C 320.585938 224.308594 320.535156 224.945312 320.25 225.492188 L 264.335938 332.527344 C 263.933594 333.296875 263.140625 333.761719 262.296875 333.761719 "/>
</g>
<g clip-path="url(#clip10)" clip-rule="nonzero">
<path style=" stroke:none;fill-rule:nonzero;fill:rgb(54.899597%,32.159424%,100%);fill-opacity:1;" d="M 209.183594 225.453125 L 260.273438 323.25 C 261.085938 305.621094 259.136719 281.714844 248.085938 256.625 C 241.96875 242.742188 233.695312 229.890625 223.480469 218.414062 Z M 261.976562 333.761719 C 261.132812 333.761719 260.339844 333.296875 259.941406 332.527344 L 204.023438 225.492188 C 203.738281 224.945312 203.6875 224.308594 203.878906 223.722656 C 204.070312 223.136719 204.492188 222.65625 205.046875 222.382812 L 223.007812 213.535156 C 223.925781 213.085938 225.035156 213.292969 225.726562 214.050781 C 236.808594 226.21875 245.746094 239.925781 252.292969 254.785156 C 265.523438 284.8125 266.105469 313.1875 264.261719 331.699219 C 264.164062 332.707031 263.410156 333.527344 262.414062 333.71875 C 262.269531 333.746094 262.121094 333.761719 261.976562 333.761719 "/>
</g>
<path style=" stroke:none;fill-rule:nonzero;fill:rgb(54.899597%,32.159424%,100%);fill-opacity:1;" d="M 220.335938 228.675781 L 223.167969 234.214844 C 223.230469 234.339844 223.265625 234.46875 223.277344 234.605469 C 223.289062 234.742188 223.273438 234.875 223.230469 235.007812 C 223.1875 235.136719 223.125 235.253906 223.035156 235.359375 C 222.945312 235.464844 222.839844 235.546875 222.71875 235.609375 C 222.597656 235.671875 222.464844 235.710938 222.328125 235.71875 C 222.191406 235.730469 222.058594 235.714844 221.929688 235.671875 C 221.796875 235.628906 221.679688 235.566406 221.574219 235.476562 C 221.472656 235.386719 221.386719 235.28125 221.324219 235.15625 L 218.492188 229.617188 C 218.429688 229.496094 218.394531 229.363281 218.382812 229.226562 C 218.371094 229.089844 218.386719 228.957031 218.429688 228.828125 C 218.472656 228.695312 218.535156 228.578125 218.625 228.472656 C 218.714844 228.367188 218.820312 228.285156 218.941406 228.222656 C 219.0625 228.160156 219.191406 228.125 219.332031 228.113281 C 219.46875 228.101562 219.601562 228.117188 219.730469 228.160156 C 219.863281 228.203125 219.980469 228.269531 220.082031 228.359375 C 220.1875 228.449219 220.273438 228.554688 220.335938 228.675781 Z M 225.054688 237.910156 L 227.886719 243.453125 C 227.949219 243.574219 227.988281 243.703125 227.996094 243.839844 C 228.007812 243.976562 227.992188 244.109375 227.953125 244.242188 C 227.910156 244.371094 227.84375 244.492188 227.753906 244.59375 C 227.664062 244.699219 227.558594 244.78125 227.4375 244.84375 C 227.316406 244.90625 227.1875 244.945312 227.050781 244.957031 C 226.914062 244.964844 226.78125 244.949219 226.648438 244.90625 C 226.519531 244.863281 226.402344 244.800781 226.296875 244.710938 C 226.191406 244.621094 226.109375 244.515625 226.046875 244.390625 L 223.214844 238.851562 C 223.152344 238.730469 223.113281 238.597656 223.101562 238.460938 C 223.09375 238.324219 223.105469 238.191406 223.148438 238.0625 C 223.191406 237.929688 223.257812 237.8125 223.347656 237.707031 C 223.433594 237.605469 223.539062 237.519531 223.664062 237.457031 C 223.785156 237.394531 223.914062 237.359375 224.050781 237.347656 C 224.1875 237.335938 224.320312 237.351562 224.453125 237.394531 C 224.582031 237.4375 224.699219 237.503906 224.804688 237.59375 C 224.910156 237.683594 224.992188 237.789062 225.054688 237.910156 Z M 229.773438 247.144531 L 232.609375 252.6875 C 232.671875 252.808594 232.707031 252.9375 232.71875 253.074219 C 232.730469 253.210938 232.714844 253.347656 232.671875 253.476562 C 232.628906 253.605469 232.5625 253.726562 232.476562 253.828125 C 232.386719 253.933594 232.28125 254.015625 232.160156 254.078125 C 232.035156 254.140625 231.90625 254.179688 231.769531 254.191406 C 231.632812 254.199219 231.5 254.183594 231.371094 254.140625 C 231.238281 254.101562 231.121094 254.035156 231.015625 253.945312 C 230.914062 253.855469 230.828125 253.75 230.765625 253.628906 L 227.933594 248.085938 C 227.871094 247.964844 227.835938 247.835938 227.824219 247.695312 C 227.8125 247.558594 227.828125 247.425781 227.871094 247.296875 C 227.910156 247.164062 227.976562 247.046875 228.066406 246.941406 C 228.15625 246.839844 228.261719 246.753906 228.382812 246.691406 C 228.503906 246.628906 228.632812 246.59375 228.769531 246.582031 C 228.90625 246.570312 229.042969 246.585938 229.171875 246.628906 C 229.300781 246.671875 229.421875 246.738281 229.523438 246.828125 C 229.628906 246.917969 229.710938 247.023438 229.773438 247.144531 Z M 234.496094 256.378906 L 237.328125 261.921875 C 237.390625 262.042969 237.425781 262.171875 237.4375 262.308594 C 237.449219 262.445312 237.433594 262.582031 237.390625 262.710938 C 237.351562 262.839844 237.285156 262.960938 237.195312 263.0625 C 237.105469 263.167969 237 263.25 236.878906 263.3125 C 236.757812 263.375 236.628906 263.414062 236.492188 263.425781 C 236.355469 263.433594 236.21875 263.417969 236.089844 263.375 C 235.960938 263.335938 235.839844 263.269531 235.738281 263.179688 C 235.632812 263.089844 235.550781 262.984375 235.488281 262.863281 L 232.652344 257.320312 C 232.589844 257.199219 232.554688 257.070312 232.542969 256.929688 C 232.53125 256.792969 232.546875 256.660156 232.589844 256.53125 C 232.632812 256.398438 232.699219 256.28125 232.785156 256.175781 C 232.875 256.074219 232.980469 255.988281 233.101562 255.925781 C 233.226562 255.863281 233.355469 255.828125 233.492188 255.816406 C 233.628906 255.804688 233.761719 255.820312 233.890625 255.863281 C 234.023438 255.90625 234.140625 255.972656 234.246094 256.0625 C 234.347656 256.152344 234.433594 256.257812 234.496094 256.378906 Z M 239.214844 265.613281 L 242.046875 271.15625 C 242.109375 271.277344 242.148438 271.40625 242.160156 271.542969 C 242.167969 271.679688 242.15625 271.816406 242.113281 271.945312 C 242.070312 272.078125 242.003906 272.195312 241.914062 272.296875 C 241.828125 272.402344 241.722656 272.488281 241.597656 272.546875 C 241.476562 272.609375 241.347656 272.648438 241.210938 272.660156 C 241.074219 272.667969 240.941406 272.652344 240.808594 272.609375 C 240.679688 272.570312 240.5625 272.503906 240.457031 272.414062 C 240.351562 272.324219 240.269531 272.21875 240.207031 272.097656 L 237.375 266.554688 C 237.3125 266.433594 237.273438 266.304688 237.265625 266.167969 C 237.253906 266.027344 237.269531 265.894531 237.308594 265.765625 C 237.351562 265.632812 237.417969 265.515625 237.507812 265.410156 C 237.59375 265.308594 237.699219 265.222656 237.824219 265.160156 C 237.945312 265.097656 238.074219 265.0625 238.210938 265.050781 C 238.347656 265.039062 238.480469 265.054688 238.613281 265.097656 C 238.742188 265.140625 238.859375 265.207031 238.964844 265.296875 C 239.070312 265.386719 239.152344 265.492188 239.214844 265.613281 Z M 243.9375 274.847656 L 246.769531 280.390625 C 246.832031 280.511719 246.867188 280.640625 246.878906 280.777344 C 246.890625 280.914062 246.875 281.050781 246.832031 281.179688 C 246.789062 281.3125 246.726562 281.429688 246.636719 281.53125 C 246.546875 281.636719 246.441406 281.722656 246.320312 281.785156 C 246.199219 281.847656 246.066406 281.882812 245.929688 281.894531 C 245.792969 281.902344 245.660156 281.886719 245.53125 281.84375 C 245.398438 281.804688 245.28125 281.738281 245.179688 281.648438 C 245.074219 281.558594 244.988281 281.453125 244.925781 281.332031 L 242.09375 275.789062 C 242.03125 275.667969 241.996094 275.539062 241.984375 275.402344 C 241.972656 275.261719 241.988281 275.128906 242.03125 275 C 242.074219 274.867188 242.136719 274.75 242.226562 274.644531 C 242.316406 274.542969 242.421875 274.457031 242.542969 274.394531 C 242.664062 274.332031 242.796875 274.296875 242.933594 274.285156 C 243.070312 274.273438 243.203125 274.289062 243.332031 274.332031 C 243.464844 274.375 243.582031 274.441406 243.683594 274.53125 C 243.789062 274.621094 243.875 274.726562 243.9375 274.847656 Z M 248.65625 284.082031 L 251.488281 289.625 C 251.550781 289.746094 251.589844 289.875 251.597656 290.011719 C 251.609375 290.148438 251.59375 290.285156 251.554688 290.414062 C 251.511719 290.546875 251.445312 290.664062 251.355469 290.765625 C 251.269531 290.871094 251.164062 290.957031 251.039062 291.019531 C 250.917969 291.082031 250.789062 291.117188 250.652344 291.128906 C 250.515625 291.136719 250.382812 291.121094 250.25 291.082031 C 250.121094 291.039062 250.003906 290.972656 249.898438 290.882812 C 249.792969 290.792969 249.710938 290.6875 249.648438 290.566406 L 246.816406 285.023438 C 246.753906 284.902344 246.714844 284.773438 246.703125 284.636719 C 246.695312 284.5 246.707031 284.363281 246.75 284.234375 C 246.792969 284.101562 246.859375 283.984375 246.949219 283.878906 C 247.035156 283.777344 247.140625 283.691406 247.265625 283.628906 C 247.386719 283.566406 247.515625 283.53125 247.652344 283.519531 C 247.789062 283.507812 247.921875 283.527344 248.054688 283.566406 C 248.183594 283.609375 248.300781 283.675781 248.40625 283.765625 C 248.511719 283.855469 248.59375 283.960938 248.65625 284.082031 Z M 253.375 293.316406 L 254.21875 294.96875 C 254.28125 295.089844 254.320312 295.21875 254.332031 295.355469 C 254.34375 295.492188 254.328125 295.628906 254.285156 295.757812 C 254.242188 295.890625 254.175781 296.007812 254.089844 296.113281 C 254 296.214844 253.894531 296.300781 253.773438 296.363281 C 253.648438 296.425781 253.519531 296.460938 253.382812 296.472656 C 253.246094 296.484375 253.113281 296.464844 252.984375 296.425781 C 252.851562 296.382812 252.734375 296.316406 252.628906 296.226562 C 252.523438 296.136719 252.441406 296.03125 252.378906 295.910156 L 251.535156 294.257812 C 251.472656 294.136719 251.4375 294.007812 251.425781 293.871094 C 251.414062 293.734375 251.429688 293.597656 251.472656 293.46875 C 251.511719 293.335938 251.578125 293.21875 251.667969 293.113281 C 251.757812 293.011719 251.863281 292.925781 251.984375 292.863281 C 252.105469 292.800781 252.234375 292.765625 252.371094 292.753906 C 252.507812 292.742188 252.644531 292.761719 252.773438 292.800781 C 252.902344 292.84375 253.023438 292.910156 253.125 293 C 253.230469 293.089844 253.3125 293.195312 253.375 293.316406 Z M 253.375 293.316406 "/>
<path style=" stroke:none;fill-rule:nonzero;fill:rgb(54.899597%,32.159424%,100%);fill-opacity:1;" d="M 305.097656 233.746094 L 302.300781 239.300781 C 302.238281 239.425781 302.15625 239.53125 302.050781 239.621094 C 301.945312 239.710938 301.828125 239.777344 301.699219 239.820312 C 301.570312 239.863281 301.433594 239.882812 301.296875 239.871094 C 301.160156 239.859375 301.03125 239.824219 300.910156 239.765625 C 300.785156 239.703125 300.679688 239.621094 300.589844 239.515625 C 300.5 239.410156 300.4375 239.292969 300.394531 239.164062 C 300.351562 239.03125 300.332031 238.898438 300.34375 238.761719 C 300.355469 238.625 300.390625 238.496094 300.453125 238.371094 L 303.25 232.816406 C 303.3125 232.691406 303.394531 232.585938 303.5 232.496094 C 303.605469 232.40625 303.722656 232.339844 303.851562 232.296875 C 303.980469 232.253906 304.117188 232.234375 304.253906 232.246094 C 304.390625 232.257812 304.519531 232.292969 304.640625 232.355469 C 304.765625 232.414062 304.871094 232.5 304.960938 232.601562 C 305.046875 232.707031 305.113281 232.824219 305.15625 232.953125 C 305.199219 233.085938 305.21875 233.21875 305.207031 233.355469 C 305.195312 233.492188 305.160156 233.621094 305.097656 233.746094 Z M 300.433594 243.007812 L 297.632812 248.566406 C 297.570312 248.6875 297.488281 248.792969 297.386719 248.882812 C 297.28125 248.972656 297.164062 249.039062 297.035156 249.082031 C 296.902344 249.128906 296.769531 249.144531 296.632812 249.132812 C 296.496094 249.125 296.367188 249.089844 296.242188 249.027344 C 296.121094 248.964844 296.015625 248.882812 295.925781 248.777344 C 295.835938 248.671875 295.769531 248.554688 295.726562 248.425781 C 295.683594 248.296875 295.667969 248.160156 295.679688 248.023438 C 295.6875 247.886719 295.726562 247.757812 295.785156 247.636719 L 298.585938 242.078125 C 298.648438 241.953125 298.730469 241.847656 298.835938 241.757812 C 298.9375 241.667969 299.054688 241.601562 299.1875 241.558594 C 299.316406 241.515625 299.449219 241.5 299.585938 241.507812 C 299.722656 241.519531 299.855469 241.554688 299.976562 241.617188 C 300.097656 241.679688 300.203125 241.761719 300.292969 241.863281 C 300.382812 241.96875 300.449219 242.085938 300.492188 242.214844 C 300.535156 242.347656 300.550781 242.480469 300.542969 242.617188 C 300.53125 242.753906 300.496094 242.886719 300.433594 243.007812 Z M 295.769531 252.269531 L 292.96875 257.828125 C 292.90625 257.949219 292.824219 258.058594 292.71875 258.148438 C 292.617188 258.238281 292.5 258.304688 292.367188 258.347656 C 292.238281 258.390625 292.105469 258.40625 291.96875 258.394531 C 291.832031 258.386719 291.703125 258.351562 291.578125 258.289062 C 291.457031 258.226562 291.351562 258.144531 291.261719 258.039062 C 291.171875 257.9375 291.105469 257.820312 291.0625 257.6875 C 291.019531 257.558594 291.003906 257.425781 291.011719 257.289062 C 291.023438 257.148438 291.058594 257.019531 291.121094 256.898438 L 293.921875 251.339844 C 293.984375 251.21875 294.066406 251.109375 294.167969 251.019531 C 294.273438 250.929688 294.390625 250.863281 294.519531 250.820312 C 294.652344 250.777344 294.785156 250.761719 294.921875 250.769531 C 295.058594 250.78125 295.1875 250.816406 295.3125 250.878906 C 295.433594 250.941406 295.539062 251.023438 295.628906 251.128906 C 295.71875 251.230469 295.785156 251.347656 295.828125 251.480469 C 295.871094 251.609375 295.886719 251.742188 295.875 251.878906 C 295.867188 252.015625 295.828125 252.148438 295.769531 252.269531 Z M 291.101562 261.53125 L 288.304688 267.089844 C 288.242188 267.214844 288.160156 267.320312 288.054688 267.410156 C 287.949219 267.5 287.832031 267.566406 287.703125 267.609375 C 287.574219 267.652344 287.4375 267.667969 287.300781 267.660156 C 287.164062 267.648438 287.035156 267.613281 286.914062 267.550781 C 286.792969 267.488281 286.683594 267.40625 286.59375 267.300781 C 286.507812 267.199219 286.441406 267.082031 286.398438 266.949219 C 286.355469 266.820312 286.339844 266.6875 286.347656 266.550781 C 286.359375 266.414062 286.394531 266.28125 286.457031 266.160156 L 289.253906 260.601562 C 289.316406 260.480469 289.402344 260.375 289.503906 260.285156 C 289.609375 260.195312 289.726562 260.125 289.855469 260.082031 C 289.988281 260.039062 290.121094 260.023438 290.257812 260.035156 C 290.394531 260.042969 290.523438 260.078125 290.644531 260.140625 C 290.769531 260.203125 290.875 260.285156 290.964844 260.390625 C 291.054688 260.492188 291.121094 260.609375 291.160156 260.742188 C 291.203125 260.871094 291.222656 261.003906 291.210938 261.144531 C 291.199219 261.28125 291.164062 261.410156 291.101562 261.53125 Z M 286.4375 270.796875 L 283.636719 276.351562 C 283.578125 276.476562 283.492188 276.582031 283.390625 276.671875 C 283.285156 276.761719 283.167969 276.828125 283.039062 276.871094 C 282.90625 276.914062 282.773438 276.929688 282.636719 276.921875 C 282.5 276.910156 282.371094 276.875 282.25 276.8125 C 282.125 276.753906 282.019531 276.667969 281.929688 276.566406 C 281.839844 276.460938 281.773438 276.34375 281.730469 276.214844 C 281.6875 276.082031 281.671875 275.949219 281.683594 275.8125 C 281.691406 275.675781 281.730469 275.546875 281.792969 275.421875 L 284.589844 269.863281 C 284.652344 269.742188 284.734375 269.636719 284.839844 269.546875 C 284.941406 269.457031 285.058594 269.390625 285.191406 269.347656 C 285.320312 269.304688 285.453125 269.285156 285.589844 269.296875 C 285.726562 269.304688 285.859375 269.34375 285.980469 269.402344 C 286.101562 269.464844 286.207031 269.546875 286.296875 269.652344 C 286.386719 269.757812 286.453125 269.875 286.496094 270.003906 C 286.539062 270.132812 286.554688 270.269531 286.546875 270.40625 C 286.535156 270.542969 286.5 270.671875 286.4375 270.796875 Z M 281.773438 280.058594 L 278.972656 285.613281 C 278.910156 285.738281 278.828125 285.84375 278.722656 285.933594 C 278.621094 286.023438 278.503906 286.089844 278.371094 286.132812 C 278.242188 286.175781 278.109375 286.195312 277.972656 286.183594 C 277.835938 286.171875 277.707031 286.136719 277.582031 286.074219 C 277.460938 286.015625 277.355469 285.929688 277.265625 285.828125 C 277.175781 285.722656 277.109375 285.605469 277.066406 285.476562 C 277.023438 285.34375 277.007812 285.210938 277.019531 285.074219 C 277.027344 284.9375 277.0625 284.808594 277.125 284.683594 L 279.925781 279.128906 C 279.988281 279.003906 280.070312 278.898438 280.175781 278.808594 C 280.277344 278.71875 280.394531 278.652344 280.527344 278.609375 C 280.65625 278.566406 280.789062 278.546875 280.925781 278.558594 C 281.0625 278.570312 281.191406 278.605469 281.316406 278.667969 C 281.4375 278.726562 281.542969 278.8125 281.632812 278.914062 C 281.722656 279.019531 281.789062 279.136719 281.832031 279.265625 C 281.875 279.398438 281.890625 279.53125 281.878906 279.667969 C 281.871094 279.804688 281.835938 279.933594 281.773438 280.058594 Z M 277.105469 289.320312 L 274.308594 294.878906 C 274.246094 295 274.164062 295.105469 274.058594 295.195312 C 273.953125 295.285156 273.835938 295.351562 273.707031 295.394531 C 273.578125 295.441406 273.445312 295.457031 273.308594 295.445312 C 273.167969 295.4375 273.039062 295.398438 272.917969 295.339844 C 272.796875 295.277344 272.6875 295.195312 272.601562 295.089844 C 272.511719 294.984375 272.445312 294.867188 272.402344 294.738281 C 272.359375 294.609375 272.34375 294.472656 272.351562 294.335938 C 272.363281 294.199219 272.398438 294.070312 272.460938 293.945312 L 275.261719 288.390625 C 275.320312 288.265625 275.40625 288.160156 275.507812 288.070312 C 275.613281 287.980469 275.730469 287.914062 275.859375 287.871094 C 275.992188 287.828125 276.125 287.8125 276.261719 287.820312 C 276.398438 287.832031 276.527344 287.867188 276.648438 287.929688 C 276.773438 287.992188 276.878906 288.074219 276.96875 288.175781 C 277.058594 288.28125 277.125 288.398438 277.167969 288.527344 C 277.210938 288.660156 277.226562 288.792969 277.214844 288.929688 C 277.203125 289.066406 277.167969 289.195312 277.105469 289.320312 Z M 272.441406 298.582031 L 271.609375 300.238281 C 271.546875 300.359375 271.464844 300.46875 271.359375 300.558594 C 271.253906 300.648438 271.136719 300.714844 271.007812 300.757812 C 270.878906 300.800781 270.742188 300.816406 270.605469 300.804688 C 270.46875 300.796875 270.339844 300.761719 270.21875 300.699219 C 270.09375 300.636719 269.988281 300.554688 269.898438 300.449219 C 269.8125 300.347656 269.746094 300.230469 269.703125 300.097656 C 269.660156 299.96875 269.640625 299.835938 269.652344 299.699219 C 269.664062 299.558594 269.699219 299.429688 269.761719 299.308594 L 270.59375 297.652344 C 270.65625 297.53125 270.738281 297.421875 270.84375 297.332031 C 270.949219 297.242188 271.066406 297.175781 271.195312 297.132812 C 271.324219 297.089844 271.460938 297.074219 271.597656 297.082031 C 271.734375 297.09375 271.863281 297.128906 271.984375 297.191406 C 272.105469 297.253906 272.214844 297.335938 272.300781 297.441406 C 272.390625 297.542969 272.457031 297.660156 272.5 297.792969 C 272.542969 297.921875 272.558594 298.054688 272.550781 298.191406 C 272.539062 298.328125 272.503906 298.460938 272.441406 298.582031 Z M 272.441406 298.582031 "/>
<path style=" stroke:none;fill-rule:nonzero;fill:rgb(54.899597%,32.159424%,100%);fill-opacity:1;" d="M 231.542969 230.296875 L 234.46875 235.707031 C 234.53125 235.824219 234.570312 235.953125 234.585938 236.089844 C 234.597656 236.222656 234.585938 236.355469 234.546875 236.488281 C 234.507812 236.617188 234.445312 236.734375 234.359375 236.84375 C 234.269531 236.949219 234.167969 237.035156 234.046875 237.097656 C 233.925781 237.164062 233.796875 237.203125 233.660156 237.21875 C 233.523438 237.234375 233.390625 237.222656 233.261719 237.183594 C 233.128906 237.144531 233.011719 237.082031 232.90625 236.996094 C 232.800781 236.910156 232.714844 236.808594 232.648438 236.6875 L 229.722656 231.28125 C 229.660156 231.160156 229.621094 231.03125 229.605469 230.898438 C 229.59375 230.761719 229.605469 230.628906 229.644531 230.496094 C 229.683594 230.367188 229.746094 230.25 229.835938 230.144531 C 229.921875 230.035156 230.023438 229.949219 230.144531 229.886719 C 230.265625 229.820312 230.394531 229.78125 230.53125 229.765625 C 230.667969 229.75 230.800781 229.761719 230.929688 229.800781 C 231.0625 229.839844 231.179688 229.902344 231.285156 229.988281 C 231.390625 230.074219 231.476562 230.175781 231.542969 230.296875 Z M 236.417969 239.3125 L 239.34375 244.722656 C 239.410156 244.839844 239.449219 244.96875 239.460938 245.105469 C 239.476562 245.238281 239.464844 245.375 239.421875 245.503906 C 239.382812 245.632812 239.320312 245.753906 239.234375 245.859375 C 239.148438 245.964844 239.042969 246.050781 238.921875 246.117188 C 238.804688 246.179688 238.675781 246.222656 238.539062 246.234375 C 238.402344 246.25 238.269531 246.238281 238.136719 246.199219 C 238.007812 246.160156 237.886719 246.097656 237.78125 246.015625 C 237.675781 245.929688 237.589844 245.824219 237.527344 245.707031 L 234.601562 240.296875 C 234.535156 240.175781 234.496094 240.050781 234.484375 239.914062 C 234.46875 239.777344 234.480469 239.644531 234.523438 239.515625 C 234.5625 239.382812 234.625 239.265625 234.710938 239.160156 C 234.796875 239.054688 234.902344 238.96875 235.023438 238.902344 C 235.144531 238.835938 235.269531 238.796875 235.40625 238.78125 C 235.542969 238.769531 235.675781 238.78125 235.808594 238.820312 C 235.9375 238.855469 236.058594 238.917969 236.164062 239.003906 C 236.269531 239.089844 236.355469 239.191406 236.417969 239.3125 Z M 241.296875 248.328125 L 244.222656 253.738281 C 244.285156 253.859375 244.324219 253.984375 244.339844 254.121094 C 244.351562 254.257812 244.339844 254.390625 244.300781 254.519531 C 244.261719 254.652344 244.199219 254.769531 244.109375 254.875 C 244.023438 254.980469 243.921875 255.066406 243.800781 255.132812 C 243.679688 255.199219 243.550781 255.238281 243.414062 255.253906 C 243.277344 255.265625 243.144531 255.253906 243.015625 255.214844 C 242.882812 255.179688 242.765625 255.117188 242.660156 255.03125 C 242.554688 254.945312 242.46875 254.84375 242.402344 254.722656 L 239.476562 249.3125 C 239.414062 249.191406 239.375 249.066406 239.359375 248.929688 C 239.347656 248.792969 239.359375 248.660156 239.398438 248.53125 C 239.4375 248.402344 239.5 248.28125 239.585938 248.175781 C 239.675781 248.070312 239.777344 247.984375 239.898438 247.917969 C 240.019531 247.855469 240.148438 247.8125 240.285156 247.800781 C 240.421875 247.785156 240.554688 247.796875 240.683594 247.835938 C 240.816406 247.875 240.933594 247.9375 241.039062 248.019531 C 241.144531 248.105469 241.230469 248.210938 241.296875 248.328125 Z M 246.171875 257.34375 L 249.097656 262.753906 C 249.164062 262.875 249.203125 263.003906 249.214844 263.136719 C 249.230469 263.273438 249.21875 263.40625 249.175781 263.539062 C 249.136719 263.667969 249.074219 263.785156 248.988281 263.890625 C 248.902344 264 248.796875 264.082031 248.675781 264.148438 C 248.554688 264.214844 248.429688 264.253906 248.292969 264.269531 C 248.15625 264.285156 248.023438 264.269531 247.890625 264.234375 C 247.761719 264.195312 247.640625 264.132812 247.535156 264.046875 C 247.429688 263.960938 247.34375 263.859375 247.28125 263.738281 L 244.355469 258.328125 C 244.289062 258.210938 244.25 258.082031 244.238281 257.945312 C 244.222656 257.8125 244.234375 257.679688 244.273438 257.546875 C 244.316406 257.417969 244.378906 257.296875 244.464844 257.191406 C 244.550781 257.085938 244.65625 257 244.777344 256.9375 C 244.894531 256.871094 245.023438 256.832031 245.160156 256.816406 C 245.296875 256.800781 245.429688 256.8125 245.5625 256.851562 C 245.691406 256.890625 245.8125 256.953125 245.917969 257.039062 C 246.023438 257.125 246.109375 257.226562 246.171875 257.34375 Z M 251.050781 266.363281 L 253.976562 271.773438 C 254.039062 271.890625 254.078125 272.019531 254.09375 272.15625 C 254.105469 272.289062 254.09375 272.421875 254.054688 272.554688 C 254.015625 272.683594 253.953125 272.804688 253.863281 272.910156 C 253.777344 273.015625 253.675781 273.101562 253.554688 273.164062 C 253.433594 273.230469 253.304688 273.269531 253.167969 273.285156 C 253.03125 273.300781 252.898438 273.289062 252.769531 273.25 C 252.636719 273.210938 252.519531 273.148438 252.414062 273.0625 C 252.304688 272.976562 252.222656 272.875 252.15625 272.757812 L 249.230469 267.347656 C 249.164062 267.226562 249.125 267.097656 249.113281 266.964844 C 249.097656 266.828125 249.113281 266.695312 249.152344 266.5625 C 249.191406 266.433594 249.253906 266.316406 249.339844 266.210938 C 249.429688 266.101562 249.53125 266.019531 249.652344 265.953125 C 249.773438 265.886719 249.902344 265.847656 250.039062 265.832031 C 250.171875 265.816406 250.308594 265.832031 250.4375 265.867188 C 250.570312 265.90625 250.6875 265.96875 250.792969 266.054688 C 250.898438 266.140625 250.984375 266.242188 251.050781 266.363281 Z M 255.925781 275.378906 L 256.152344 275.796875 C 256.21875 275.917969 256.257812 276.042969 256.269531 276.179688 C 256.285156 276.316406 256.269531 276.449219 256.230469 276.578125 C 256.191406 276.710938 256.128906 276.828125 256.042969 276.933594 C 255.957031 277.039062 255.851562 277.125 255.730469 277.191406 C 255.609375 277.257812 255.480469 277.296875 255.34375 277.308594 C 255.210938 277.324219 255.074219 277.3125 254.945312 277.273438 C 254.8125 277.234375 254.695312 277.175781 254.589844 277.089844 C 254.484375 277.003906 254.398438 276.902344 254.332031 276.78125 L 254.105469 276.363281 C 254.042969 276.242188 254.003906 276.117188 253.988281 275.980469 C 253.976562 275.84375 253.988281 275.710938 254.027344 275.582031 C 254.070312 275.449219 254.132812 275.332031 254.21875 275.226562 C 254.304688 275.121094 254.410156 275.035156 254.527344 274.96875 C 254.648438 274.902344 254.777344 274.863281 254.914062 274.847656 C 255.050781 274.835938 255.183594 274.847656 255.316406 274.886719 C 255.445312 274.921875 255.566406 274.984375 255.671875 275.070312 C 255.777344 275.15625 255.863281 275.257812 255.925781 275.378906 Z M 255.925781 275.378906 "/>
<path style=" stroke:none;fill-rule:nonzero;fill:rgb(54.899597%,32.159424%,100%);fill-opacity:1;" d="M 296.339844 236.871094 L 293.4375 242.296875 C 293.371094 242.414062 293.285156 242.519531 293.179688 242.605469 C 293.074219 242.691406 292.957031 242.753906 292.828125 242.792969 C 292.695312 242.832031 292.5625 242.84375 292.425781 242.828125 C 292.289062 242.816406 292.160156 242.777344 292.039062 242.710938 C 291.917969 242.644531 291.816406 242.5625 291.726562 242.457031 C 291.640625 242.347656 291.578125 242.230469 291.539062 242.101562 C 291.496094 241.96875 291.484375 241.835938 291.496094 241.703125 C 291.511719 241.566406 291.546875 241.4375 291.613281 241.320312 L 294.515625 235.898438 C 294.578125 235.777344 294.664062 235.675781 294.769531 235.589844 C 294.875 235.503906 294.996094 235.441406 295.125 235.402344 C 295.257812 235.363281 295.390625 235.347656 295.527344 235.363281 C 295.660156 235.378906 295.789062 235.417969 295.910156 235.480469 C 296.03125 235.546875 296.136719 235.632812 296.222656 235.738281 C 296.308594 235.84375 296.375 235.960938 296.414062 236.089844 C 296.453125 236.222656 296.46875 236.355469 296.453125 236.488281 C 296.441406 236.625 296.402344 236.753906 296.339844 236.871094 Z M 291.5 245.910156 L 288.597656 251.332031 C 288.53125 251.453125 288.449219 251.554688 288.34375 251.640625 C 288.238281 251.726562 288.117188 251.789062 287.988281 251.828125 C 287.855469 251.867188 287.722656 251.878906 287.585938 251.867188 C 287.449219 251.851562 287.324219 251.8125 287.203125 251.746094 C 287.082031 251.683594 286.976562 251.597656 286.890625 251.492188 C 286.800781 251.386719 286.738281 251.269531 286.699219 251.136719 C 286.660156 251.007812 286.644531 250.875 286.65625 250.738281 C 286.671875 250.605469 286.710938 250.476562 286.773438 250.355469 L 289.675781 244.933594 C 289.742188 244.8125 289.824219 244.710938 289.933594 244.625 C 290.039062 244.539062 290.15625 244.476562 290.285156 244.4375 C 290.417969 244.398438 290.550781 244.386719 290.6875 244.398438 C 290.824219 244.414062 290.953125 244.453125 291.074219 244.519531 C 291.195312 244.582031 291.296875 244.667969 291.382812 244.773438 C 291.472656 244.878906 291.535156 244.996094 291.574219 245.128906 C 291.617188 245.257812 291.628906 245.390625 291.617188 245.527344 C 291.601562 245.664062 291.5625 245.789062 291.5 245.910156 Z M 286.660156 254.945312 L 283.757812 260.371094 C 283.695312 260.488281 283.609375 260.59375 283.503906 260.679688 C 283.398438 260.765625 283.28125 260.828125 283.148438 260.867188 C 283.019531 260.90625 282.882812 260.917969 282.75 260.902344 C 282.613281 260.890625 282.484375 260.851562 282.363281 260.785156 C 282.242188 260.71875 282.136719 260.636719 282.050781 260.53125 C 281.964844 260.421875 281.898438 260.304688 281.859375 260.175781 C 281.820312 260.042969 281.804688 259.910156 281.820312 259.777344 C 281.832031 259.640625 281.871094 259.511719 281.933594 259.394531 L 284.839844 253.972656 C 284.902344 253.851562 284.988281 253.75 285.09375 253.664062 C 285.199219 253.578125 285.316406 253.515625 285.449219 253.476562 C 285.578125 253.4375 285.710938 253.421875 285.847656 253.4375 C 285.984375 253.453125 286.113281 253.492188 286.234375 253.554688 C 286.355469 253.621094 286.457031 253.707031 286.546875 253.8125 C 286.632812 253.917969 286.695312 254.035156 286.738281 254.164062 C 286.777344 254.296875 286.789062 254.429688 286.777344 254.5625 C 286.765625 254.699219 286.726562 254.828125 286.660156 254.945312 Z M 281.824219 263.984375 L 278.917969 269.40625 C 278.855469 269.527344 278.769531 269.628906 278.664062 269.714844 C 278.558594 269.800781 278.441406 269.863281 278.308594 269.902344 C 278.179688 269.941406 278.046875 269.953125 277.910156 269.941406 C 277.773438 269.925781 277.644531 269.886719 277.523438 269.820312 C 277.402344 269.757812 277.300781 269.671875 277.210938 269.566406 C 277.125 269.460938 277.0625 269.34375 277.019531 269.210938 C 276.980469 269.082031 276.96875 268.949219 276.980469 268.8125 C 276.992188 268.679688 277.03125 268.550781 277.097656 268.429688 L 280 263.007812 C 280.0625 262.886719 280.148438 262.785156 280.253906 262.699219 C 280.359375 262.613281 280.476562 262.550781 280.609375 262.511719 C 280.738281 262.472656 280.875 262.460938 281.007812 262.472656 C 281.144531 262.488281 281.273438 262.527344 281.394531 262.59375 C 281.515625 262.65625 281.621094 262.742188 281.707031 262.847656 C 281.792969 262.953125 281.859375 263.070312 281.898438 263.203125 C 281.9375 263.332031 281.953125 263.464844 281.9375 263.601562 C 281.925781 263.738281 281.886719 263.863281 281.824219 263.984375 Z M 276.984375 273.019531 L 274.082031 278.445312 C 274.015625 278.5625 273.929688 278.667969 273.824219 278.753906 C 273.71875 278.839844 273.601562 278.902344 273.472656 278.941406 C 273.339844 278.980469 273.207031 278.992188 273.070312 278.976562 C 272.933594 278.964844 272.804688 278.925781 272.683594 278.859375 C 272.5625 278.792969 272.460938 278.710938 272.375 278.605469 C 272.285156 278.5 272.222656 278.378906 272.183594 278.25 C 272.140625 278.117188 272.128906 277.984375 272.140625 277.851562 C 272.15625 277.714844 272.191406 277.585938 272.257812 277.46875 L 275.160156 272.046875 C 275.226562 271.925781 275.308594 271.824219 275.414062 271.738281 C 275.519531 271.652344 275.640625 271.589844 275.769531 271.550781 C 275.902344 271.511719 276.035156 271.496094 276.171875 271.511719 C 276.308594 271.527344 276.433594 271.566406 276.554688 271.628906 C 276.675781 271.695312 276.78125 271.78125 276.867188 271.886719 C 276.957031 271.992188 277.019531 272.109375 277.058594 272.238281 C 277.097656 272.371094 277.113281 272.503906 277.101562 272.636719 C 277.085938 272.773438 277.046875 272.902344 276.984375 273.019531 Z M 272.144531 282.058594 L 271.921875 282.476562 C 271.855469 282.597656 271.773438 282.699219 271.664062 282.785156 C 271.558594 282.871094 271.441406 282.933594 271.3125 282.972656 C 271.179688 283.011719 271.046875 283.027344 270.910156 283.011719 C 270.773438 282.996094 270.644531 282.957031 270.523438 282.894531 C 270.402344 282.828125 270.300781 282.742188 270.214844 282.636719 C 270.125 282.53125 270.0625 282.414062 270.023438 282.285156 C 269.980469 282.152344 269.96875 282.019531 269.980469 281.882812 C 269.996094 281.75 270.035156 281.621094 270.097656 281.5 L 270.320312 281.082031 C 270.386719 280.960938 270.472656 280.859375 270.578125 280.773438 C 270.683594 280.6875 270.800781 280.625 270.929688 280.585938 C 271.0625 280.546875 271.195312 280.535156 271.332031 280.546875 C 271.46875 280.5625 271.597656 280.601562 271.71875 280.667969 C 271.839844 280.730469 271.941406 280.816406 272.03125 280.921875 C 272.117188 281.027344 272.179688 281.144531 272.21875 281.277344 C 272.261719 281.40625 272.273438 281.539062 272.261719 281.675781 C 272.246094 281.8125 272.210938 281.9375 272.144531 282.058594 Z M 272.144531 282.058594 "/>
</g>
</svg>
